<svg xmlns="http://www.w3.org/2000/svg" viewBox="0 0 500 500"><g id="freepik--background-complete--inject-33"><rect x="392.07" y="376.37" width="35.16" height="11.19" transform="translate(819.3 763.94) rotate(180)" style="fill:#ebebeb"></rect><rect x="125.02" y="231.17" width="35.16" height="11.19" transform="translate(285.19 473.53) rotate(180)" style="fill:#ebebeb"></rect><path d="M411.68,401.67c5.84-.09,20.81-.34,26.45-.41l8.71,0-.46.45,0-11.19.5.5c-5.84,0-20.73-.07-26.37-.15l-8.79-.11.24-.24-.24,11.19Zm0,0-.23-11.19v-.23h.24c4.39-.06,13.2-.16,17.58-.2l17.58-.07h.5v.5l0,11.19v.46h-.45l-8.87,0c-5.6-.06-20.5-.32-26.29-.42Z" style="fill:#ebebeb"></path><path d="M289.63,150.16c5.84-.09,20.81-.34,26.45-.41l8.71,0-.46.45,0-11.19.5.5c-5.84,0-20.73-.07-26.37-.15l-8.79-.11.24-.24-.24,11.19Zm0,0L289.39,139v-.23h.24c4.39-.06,13.2-.16,17.58-.2l17.58-.07h.5v.5l-.05,11.19v.46h-.45l-8.87,0c-5.6-.06-20.5-.32-26.29-.42Z" style="fill:#ebebeb"></path><path d="M309.24,164.27c5.84-.09,20.81-.34,26.45-.41l8.71,0-.45.45-.05-11.19.5.5c-5.84,0-20.73-.07-26.37-.15l-8.79-.11.24-.24-.24,11.19Zm0,0L309,153.08v-.23h.24c4.39-.06,13.2-.16,17.58-.2l17.58-.07h.5v.5l0,11.19v.46h-.45l-8.87,0c-5.6-.06-20.5-.32-26.29-.42Z" style="fill:#ebebeb"></path><rect x="328.78" y="138.97" width="35.16" height="11.19" transform="translate(692.71 289.14) rotate(180)" style="fill:#ebebeb"></rect><rect x="53.16" y="390.48" width="35.16" height="11.19" transform="translate(141.48 792.16) rotate(180)" style="fill:#ebebeb"></rect><rect x="72.77" y="44.93" width="35.16" height="11.19" transform="translate(180.7 101.06) rotate(180)" style="fill:#ebebeb"></rect><path d="M53.16,70.23c5.84-.1,20.81-.35,26.45-.41l8.71,0-.46.45,0-11.19.5.5c-5.84,0-20.73-.07-26.37-.15l-8.79-.11L53.4,59l-.24,11.19Zm0,0L52.92,59v-.23h.24c4.39-.06,13.19-.16,17.58-.2l17.58-.07h.5V59l0,11.19v.46h-.45l-8.87,0c-5.6-.07-20.51-.32-26.29-.42Z" style="fill:#ebebeb"></path><path d="M392.07,56.12c5.84-.1,20.81-.34,26.45-.41l8.71,0-.46.45,0-11.19.5.5c-5.84,0-20.73-.07-26.37-.15l-8.79-.11.24-.24-.24,11.19Zm0,0-.24-11.19V44.7h.24c4.39-.06,13.2-.16,17.58-.2l17.58-.07h.5v.5l-.05,11.19v.46h-.45l-8.87,0c-5.6-.07-20.5-.32-26.29-.42Z" style="fill:#ebebeb"></path><path d="M387.84,177.23l-3.21,16.62A12.45,12.45,0,0,1,369.69,204,12.78,12.78,0,0,1,359.58,189l5.13-26.59c.05-.25.31-.2.36-.46-.21-.3-.21-.3-.16-.56a13.13,13.13,0,0,1,14.94-10.11c16.1,3.1,31.61-7.16,34.67-23,3.1-16.1-7.52-31.14-23.63-34.25a28.8,28.8,0,0,0-27.25,9.33,12.84,12.84,0,0,1-18.27,1.25,12.68,12.68,0,0,1-1-18,54.71,54.71,0,1,1,43.5,90.57Zm-10.8,56-.89,4.6a12.45,12.45,0,0,1-14.94,10.11A12.77,12.77,0,0,1,351.11,233l.88-4.6a13,13,0,0,1,14.94-10.11A12.61,12.61,0,0,1,377,233.21Z" style="fill:#ebebeb"></path><path d="M89.69,235.24l-4-16.45a12.46,12.46,0,0,1,9.39-15.4,12.77,12.77,0,0,1,15.4,9.38l6.4,26.31c.06.25-.2.31-.14.57.32.18.32.18.38.44a13.13,13.13,0,0,1-9.37,15.41,29.39,29.39,0,0,0-22,35.34c3.88,15.93,19.79,25.19,35.74,21.32a28.77,28.77,0,0,0,20.9-19.82,12.83,12.83,0,0,1,16.09-8.73,12.67,12.67,0,0,1,8.41,15.9,54.71,54.71,0,1,1-77.23-64.27Zm-13.46-55.4-1.11-4.55a12.46,12.46,0,0,1,9.39-15.41,12.77,12.77,0,0,1,15.4,9.39l1.11,4.55a13,13,0,0,1-9.38,15.4A12.61,12.61,0,0,1,76.23,179.84Z" style="fill:#ebebeb"></path></g><g id="freepik--Character--inject-33"><path d="M325.41,461.63H216.48c-.9-3.51-1.77-7-2.64-10.35-1-3.91-2-7.72-2.91-11.43-.2-.83-.43-1.66-.63-2.47q-1.08-4.28-2.11-8.31c-.42-1.65-.83-3.26-1.23-4.86s-.83-3.23-1.23-4.79c-.11-.42-.21-.83-.32-1.23s-.22-.9-.33-1.34-.28-1.08-.41-1.61v0c-.16-.56-.29-1.12-.43-1.67-.28-1.05-.54-2.08-.79-3.09-.39-1.49-.76-2.95-1.12-4.38-.15-.62-.32-1.24-.47-1.85-.26-1-.51-2-.74-2.91-.17-.63-.32-1.25-.47-1.86-.65-2.5-1.24-4.85-1.8-7-.15-.58-.29-1.15-.44-1.7-.23-1-.47-1.86-.69-2.75-.15-.55-.29-1.09-.41-1.61-.49-1.88-.93-3.59-1.3-5.1-.11-.4-.21-.78-.3-1.16-.25-1-.49-1.87-.68-2.66-.08-.32-.15-.62-.23-.9s-.16-.6-.23-.87-.09-.38-.13-.55-.14-.52-.2-.74a2,2,0,0,0-.08-.33c-.17-.65-.25-1-.25-1h106s3.49,12,9.08,31.44c1.13,3.95,2.36,8.21,3.67,12.74C316.41,430.18,320.74,445.29,325.41,461.63Z" style="fill:#37474f"></path><path d="M234.32,461.63H231.6q-6-25-11.72-50.15-1.37-6.11-2.71-12.23c-.08-.39-.16-.76-.25-1.15a.17.17,0,0,1,.32-.08c0,.13.07.25.11.37,1.23,4.38,2.46,8.77,3.66,13.16C225.61,428.2,230,444.9,234.32,461.63Z" style="fill:#263238"></path><path d="M296.5,373.07l-4.68,23.42L288,415.7l-6.52,32.75-.68,3.35-1.12,5.59-.84,4.24H216.47q-1.33-5.28-2.63-10.35c-1-3.91-2-7.72-2.91-11.43-.2-.83-.43-1.66-.63-2.47q-1.08-4.28-2.11-8.31c-.42-1.65-.83-3.26-1.23-4.86s-.83-3.23-1.23-4.79c-.11-.42-.21-.83-.32-1.23s-.22-.9-.33-1.34-.28-1.08-.41-1.61v0c-.16-.56-.29-1.12-.43-1.67-.28-1.05-.54-2.08-.79-3.09-.39-1.49-.76-2.95-1.12-4.38-.16-.63-.32-1.24-.47-1.85-.26-1-.51-2-.74-2.91-.17-.63-.32-1.25-.47-1.86-.65-2.5-1.24-4.85-1.8-7-.15-.58-.29-1.15-.44-1.7-.23-1-.47-1.86-.69-2.75-.15-.55-.29-1.09-.41-1.61-.49-1.88-.93-3.59-1.3-5.1-.11-.4-.21-.78-.3-1.16-.25-1-.49-1.87-.68-2.66-.08-.32-.15-.62-.23-.9s-.16-.6-.23-.87-.09-.38-.13-.55-.14-.52-.2-.74a2,2,0,0,0-.08-.33c-.17-.65-.25-1-.25-1Z" style="fill:#263238"></path><path d="M296.52,373v.05c0,.57-.45,6.9-1.47,16.55-.29,2.81-.63,5.9-1,9.22-.62,5.23-1.4,11-2.35,17.1-1.63,10.64-3.75,22.25-6.52,33.6-1,4.08-2,8.13-3.2,12.09l-136.86.05s-4-7.54-3.65-11.53c1.25-16,10.61-77.08,10.61-77.08L276.2,373Z" style="fill:#37474f"></path><path d="M284,385.6c-.15,4.9-.36,9.79-.68,14.66-.33,5.29-.81,10.56-1.5,15.83a5.73,5.73,0,0,1-.07.58c-.65,4.94-1.38,9.87-2.22,14.78-.79,4.59-1.37,9.53-3.4,13.77a13.55,13.55,0,0,1-3.2,4.32,9.49,9.49,0,0,1-4.38,2.26,5.27,5.27,0,0,1-.81.14h-.23a.33.33,0,0,1,.15.29c-.06,1.65,0,3.32-.2,4.94,0,.07,0,.14,0,.21-.17,1.42-.43,2.83-.69,4.24h-2.35s0-.06,0-.08c.41-1.55.76-3.11,1.14-4.67s.94-3.15,1.31-4.76A.3.3,0,0,1,267,452a7.3,7.3,0,0,1-7.07-4.43c-.79-2.1-.43-4.28-.11-6.44.43-2.8.84-5.6,1.27-8.4.8-5.15,1.83-10.25,2.74-15.37l.42-2.33c1.83-10.42,3.75-20.84,6.06-31.17.08-.43.18-.85.27-1.28a.26.26,0,0,1,.5.07c-.07.69-.14,1.39-.22,2.08q-.6,5.94-1.42,11.85c-.66,4.62-1.12,9.27-1.77,13.9-.22,1.57-.44,3.14-.67,4.72-1.07,7.6-2.17,15.21-3.47,22.79-.61,3.52-2.8,9.82,2.26,10.92a5.25,5.25,0,0,0,3.44-.43c2.25-1.12,3.89-3.69,4.71-5.95,1.43-4,1.94-8.48,2.69-12.67q1.25-7,2.21-13.93v0c.83-5.81,1.68-11.6,2.59-17.4q.69-4.44,1.4-8.86l.66-4.1C283.5,385.23,284,385.31,284,385.6Z" style="fill:#263238"></path><path d="M175.11,422A68.85,68.85,0,0,0,192,419.71c2.54-.65,5.05-1.47,7.55-2.28a19.86,19.86,0,0,0,6.81-3.42c3.84-3.31,5.63-8.53,7.29-13.15a124.71,124.71,0,0,0,4.43-16c.06-.27.45-.18.45.07a61.72,61.72,0,0,1-2.29,18.13c-1.38,5-3.23,10.59-7.27,14.1-4.26,3.69-10,5-15.48,5.65a71.21,71.21,0,0,1-18.39-.25A.31.31,0,0,1,175.11,422Z" style="fill:#263238"></path><path d="M165.63,385.05c-.31,7.66-8,52.16-8.77,67.31-.13,2.71,5.36,6.56,5.22,9.27h-2.57c.18-2.65-5.28-6.44-5.11-9.09,1-15.25,10-59.86,10.57-67.51A.33.33,0,0,1,165.63,385.05Z" style="fill:#263238"></path><path d="M273.64,203.88c23.43,17.91,105.71,84,107.75,115.33,1.67,25.44-24.18,31.42-40.4,19.43-22-16.29-63.53-70.46-80.28-109.78C251.46,207.13,250.61,186.27,273.64,203.88Z" style="fill: rgb(235, 148, 129);"></path><path d="M286.87,284.85l64.84-29.27s-61.6-48.24-83.73-57.31c-24.89-10.21-24.67,4.75-15,28.43S286.87,284.85,286.87,284.85Z" style="fill:#C26C25"></path><path d="M351.71,255.58l-64.85,29.27S262.65,250.38,253,226.7s-9.89-38.64,15-28.43c1.25.52,2.64,1.16,4.15,1.91l1.84,1,0,0c8.29,4.39,19.36,11.67,30.55,19.47l.61.43c8.82,6.18,17.7,12.67,25.3,18.33l3.19,2.4C344.28,249.76,351.71,255.58,351.71,255.58Z" style="fill:#C26C25"></path><path d="M351.71,255.58l-64.85,29.27S262.65,250.38,253,226.7s-9.89-38.64,15-28.43c1.25.52,2.64,1.16,4.15,1.91l1.84,1,0,0c8.29,4.39,19.36,11.67,30.55,19.47l.61.43c8.82,6.18,17.7,12.67,25.3,18.33l3.19,2.4C344.28,249.76,351.71,255.58,351.71,255.58Z" style="fill:#C26C25"></path><path d="M339.48,246.18h0a20.38,20.38,0,0,0-2.12-.41,25.24,25.24,0,0,0,6.2,3.88l1.1.47Zm-87.83-50.63h0a6.13,6.13,0,0,0-2,1.11c.41.22.82.42,1.24.62a25.67,25.67,0,0,0,7,2.17A26,26,0,0,0,251.65,195.55Zm44.58,64.23a26.08,26.08,0,0,0-3.41-6.47,28.18,28.18,0,0,0,5,13.6A25.36,25.36,0,0,0,296.23,259.78ZM277.31,223.4a25.55,25.55,0,0,0-6.47,3.4,25.72,25.72,0,0,0,7.13-1.63,25.43,25.43,0,0,0,6.47-3.41A25.65,25.65,0,0,0,277.31,223.4Z" style="fill:#fff"></path><path d="M337.39,248.18c-2.4.67-22.75,9.47-27.13,11.48s-22.37,10-26.73,12.51a.17.17,0,0,0,.13.32c4.72-1.58,22.89-9.64,27.39-11.59s24.45-11.12,26.51-12.43C337.73,248.36,337.56,248.14,337.39,248.18Z" style="fill:#263238"></path><path d="M304.41,276.93l-17.55,7.92S262.65,250.38,253,226.7c-7.13-17.47-9.12-30.2.32-31.57Z" style="opacity:0.1"></path><path d="M302.8,380.39l-152.46,4s-7.51-7.77-6.37-16.93c4.21-33.83,58-152.4,78.92-166.65,9.37-6.38,29.44-11.37,40.6-3,17.34,13,34.56,105.89,44.39,158.32C310.69,371.14,302.9,380.24,302.8,380.39Z" style="fill:#ebebeb"></path><path d="M223.81,208.45c5.3,8.71,12.59,16.18,20.88,20.86,4.19,2.37,8.71,4.14,13.3,4.13a10.9,10.9,0,0,0,6.81-1.91,14.16,14.16,0,0,0,4.06-6.07,30.65,30.65,0,0,0,1.86-8.47,76.57,76.57,0,0,0,.21-9.94c0-.13.17-.11.17,0,.15,3.15.52,6.29.45,9.44a33.65,33.65,0,0,1-1.05,8.18,18.29,18.29,0,0,1-3.39,6.82,10,10,0,0,1-6.48,3.45c-4.8.71-9.78-.69-14.32-3a49.65,49.65,0,0,1-12.24-9,57.94,57.94,0,0,1-10.51-14.4C223.46,208.4,223.7,208.28,223.81,208.45Z" style="fill:#263238"></path><path d="M227.2,195s6.4,55.18,7.12,80.79-7.12,170.79-7.12,170.79S164.79,434.71,157,432.65s-28.94-22.54-28.94-22.54S176.92,233.72,227.2,195Z" style="fill:#C26C25"></path><path d="M220.73,217.3a25.66,25.66,0,0,0-2.16,7,28.44,28.44,0,0,0,6.05-13.18A25.89,25.89,0,0,0,220.73,217.3Zm-29,90.52a25.63,25.63,0,0,0-2.17,7,25.47,25.47,0,0,0,3.89-6.2,26,26,0,0,0,2.16-7A26,26,0,0,0,191.71,307.82Zm-20.9,96.64a25.67,25.67,0,0,0-2.17,7,25.1,25.1,0,0,0,3.89-6.2,25.66,25.66,0,0,0,2.16-7A25.85,25.85,0,0,0,170.81,404.46Zm55.95-6.6a25.72,25.72,0,0,0-2.16,7,25.54,25.54,0,0,0,3.88-6.2,34.17,34.17,0,0,0,1.37-3.52v0c0-.87.08-1.75.13-2.64A27.94,27.94,0,0,0,226.76,397.86Zm-55.07-52.24a25.27,25.27,0,0,0-7-2.16,28.27,28.27,0,0,0,13.19,6A26,26,0,0,0,171.69,345.62Zm24.79-85.84a26.08,26.08,0,0,0-3.41-6.47,25.73,25.73,0,0,0,1.64,7.13,25.43,25.43,0,0,0,3.41,6.47A25.73,25.73,0,0,0,196.48,259.78Zm30,79.57a26.08,26.08,0,0,0-3.41-6.47A26.08,26.08,0,0,0,224.7,340a25.43,25.43,0,0,0,3.41,6.47A25.72,25.72,0,0,0,226.48,339.35Zm-76,87.15a19.56,19.56,0,0,0,.41,2.92c.72.48,1.4.92,2.06,1.32A22.19,22.19,0,0,0,150.48,426.5Zm-8.77-50.25a31.69,31.69,0,0,0-2-4.35c-.22.71-.45,1.42-.67,2.11.26,1,.57,1.94.91,2.9a26.08,26.08,0,0,0,3.41,6.47A25.29,25.29,0,0,0,141.71,376.25Zm57.8,53.65a26.08,26.08,0,0,0-6.47,3.41,25.73,25.73,0,0,0,7.13-1.64,25.43,25.43,0,0,0,6.47-3.41A25.65,25.65,0,0,0,199.51,429.9Zm-1.72-56a25.27,25.27,0,0,0-6.47,3.41,26,26,0,0,0,7.12-1.64,25.33,25.33,0,0,0,6.48-3.41A25.65,25.65,0,0,0,197.79,373.94Zm30.27-92.32a26.08,26.08,0,0,0-6.47,3.41,26,26,0,0,0,7.13-1.63,27.61,27.61,0,0,0,5.65-2.82v-.52A26.74,26.74,0,0,0,228.06,281.62Z" style="fill:#fff"></path><path d="M263.49,197.79c7.44,9.26,18.52,63.34,19.28,68.86S306,440.12,306,440.12,319.74,426.47,320.8,422s-13.42-85.38-20.12-115.49c-7.56-34-19.27-83.47-27.18-95.19C268,203.1,263.49,197.79,263.49,197.79Z" style="fill:#C26C25"></path><path d="M278.8,222.89c-.5.17-1,.33-1.49.51a31.49,31.49,0,0,0-3.85,1.73l.33,1.26a32.88,32.88,0,0,0,4.18-1.22l1.44-.58Zm18.73,151.05-.39.15c.09.63.18,1.26.26,1.89l.79-.27a25.27,25.27,0,0,0,6.47-3.41A25.73,25.73,0,0,0,297.53,373.94Zm6.88,54.55c0,.35.1.68.14,1a18,18,0,0,0,1.84-1.24A18.45,18.45,0,0,0,304.41,428.49Zm-13-120.67a25.62,25.62,0,0,0-2.16,7,28.42,28.42,0,0,0,6-13.19A26.09,26.09,0,0,0,291.45,307.82Z" style="fill:#fff"></path><path d="M193.27,223c-42.73,51.59-90.53,124.58-77.8,143.9,14.19,21.52,75.85-27.75,77.52-31.29,1.87-4,19.26-50.63,29.54-97.17C233.81,187.38,203.83,210.22,193.27,223Z" style="fill: rgb(235, 148, 129);"></path><path d="M119.15,369.29c15.31,10.34,57.55,14.72,129.66,2.09,10-1.75-10.12-71.3-20.87-70-13.54,1.66-65.73,11-69.46,12.21C127,323.47,108.77,362.27,119.15,369.29Z" style="fill: rgb(235, 148, 129);"></path><path d="M209.39,307.16s4.37-1.37,26.26-12.35c15.13-7.59,56.86-16.41,92.23,15.42,13.56,12.2,10.92,27-5.41,16.87C311,319.93,303.61,314,299.2,312.69c0,0,6.95,19.55,0,29.39-3.08,4.4-11.78,16.2-19.87,24.43a46.94,46.94,0,0,1-4.9-3.31,25.28,25.28,0,0,1-25.66,8.18Z" style="fill: rgb(235, 148, 129);"></path><path d="M251.25,289.87c8.59,2.22,26.73,7.23,40.14,16.49,14.89,10.28,40.82,34.1,33.11,45-5.65,8-16.34-.22-16.34-.22s8.64,12.1,1.95,18.22c-6.09,5.57-14-1.29-14-1.29s4,8.24-2.93,12.48c-8.3,5.1-15.27-13-28.14-15.12C262.17,365,251.25,289.87,251.25,289.87Z" style="fill: rgb(235, 148, 129);"></path><path d="M277.9,320.28c7.74,3.41,23.33,15.67,30.3,30.5.15.34,0,.64-.22.36a177.57,177.57,0,0,0-30.18-30.72C277.72,320.36,277.81,320.24,277.9,320.28Z" style="fill:#263238"></path><path d="M268,335.62c6.37,3.63,21.88,17,28.42,32.25.15.34,0,.63-.24.35a190.75,190.75,0,0,0-28.29-32.47C267.78,335.69,267.88,335.57,268,335.62Z" style="fill:#263238"></path><path d="M296.14,368.22c4.5,3.46,12,4.92,15.34-.79,2.6-5.32-.71-11.65-3.74-16.11l-1.08-1.48c2.63,2,5.56,3.84,8.8,4.52,5.73,1.6,10.57-3.17,9.84-8.91-1.08-8.29-7.62-14.39-13.05-20.25a138.31,138.31,0,0,0-15.45-14.28,136.19,136.19,0,0,1,15.71,8.78c3.75,2.38,6.94,5.58,10.86,7.7,11.36,6.54,17,.05,9.73-10.65-9.13-12.65-29.48-24.09-44.71-27.12,15.64,2.85,35.8,13.79,45.35,26.68,1.88,2.78,3.66,6,3.44,9.52-.28,4.25-4.2,5.78-7.93,4.86-6.8-1.41-11.7-6.49-17.28-10.19a120.68,120.68,0,0,0-11.52-6.64L301,313a149.45,149.45,0,0,1,11.94,11.53c6,6.6,15.3,15.21,12.76,25.07-2.29,6.45-9,6.85-14.31,3.94a23.56,23.56,0,0,1-3.58-2.2l.42-.41c3.12,4.69,6.36,11.12,3.56,16.63-3.5,5.78-11.12,4.24-15.63.63Z" style="fill:#263238"></path><path d="M135.18,330.83c2.54-2.62,10.06-10.94,21.59-16,10.06-4.41,39.83-9.18,47.16-9.7.19,0,.25.2.07.25-6.39,1.82-35,6.76-45.77,11.32A91.85,91.85,0,0,0,135.37,331C135.23,331.11,135.06,331,135.18,330.83Z" style="fill:#263238"></path><path d="M210,297,140,284.61S187.79,222.7,207,208.46c21.62-16,25.08-1.46,21.54,23.87S210,297,210,297Z" style="fill:#C26C25"></path><path d="M196.48,259.78a26.08,26.08,0,0,0-3.41-6.47,25.73,25.73,0,0,0,1.64,7.13,25.43,25.43,0,0,0,3.41,6.47A25.73,25.73,0,0,0,196.48,259.78Zm-41.72,6.15v0a34.53,34.53,0,0,0-2,3.63,25.62,25.62,0,0,0-2.16,7,25.73,25.73,0,0,0,3.88-6.2,26.1,26.1,0,0,0,2.13-6.74Zm66-48.63a25.66,25.66,0,0,0-2.16,7,28.44,28.44,0,0,0,6.05-13.18A25.89,25.89,0,0,0,220.73,217.3Z" style="fill:#fff"></path><path d="M152,273.41c2.49,0,24.38,3.58,29.12,4.45s24.16,4.23,29,5.54a.18.18,0,0,1,0,.35c-5-.38-24.55-3.72-29.4-4.5s-26.43-4.76-28.74-5.52C151.74,273.66,151.85,273.41,152,273.41Z" style="fill:#263238"></path><path d="M206.81,296.28c2.14.22,3.46.3,3.46.3,2.41-9.64,5.5-19.51,8.32-29,2.87-9.7,6-19.29,9-29,0-.15.27-.08.23.07-1.35,5.58-2.71,11.14-4.12,16.68.3-.66.6-1.32.89-2,1.06-2.35,2.17-4.67,3.15-7.06.08-.2.39-.11.32.1a58.65,58.65,0,0,1-2.69,7.31c-.77,1.67-1.64,3.26-2.54,4.85-.83,3.18-1.63,6.35-2.55,9.52-2.8,9.69-5.16,20.65-8.71,30.1a35.12,35.12,0,0,1-4.93-1.42A.25.25,0,0,1,206.81,296.28Z" style="fill:#263238"></path><path d="M262.38,226.59c-9.52,3.24-27.66-10-35.42-21.47-.53-.79-.1-9.63-.08-20.39,0-6.54-.19-13.81-.82-20.44-.14-1.36,42.53,6.12,42.53,6.12s-2.76,14.28-1.58,25.82a14.66,14.66,0,0,0,.55,2.7c0,.12.07.27.1.44C269,204.46,271.58,223.46,262.38,226.59Z" style="fill: rgb(235, 148, 129);"></path><path d="M268.59,170.41a117.48,117.48,0,0,0-1.87,20.29c-20.19,6.94-36.14-3.82-39.84-6.65,0-6.36-.2-13.36-.82-19.75Z" style="fill:#263238"></path><path d="M286.82,151.7s-1.57,9.85-1.08,13.38,7.8,8,7.8,8-9.15,2.11-11.59,1.22-5.73-7.75-5.73-7.75,2.54,10.68,6,11.63c2.18.59-5.49-.21-5.49-.21a10.37,10.37,0,0,1-6.34-3.87C268.17,170.87,286.82,151.7,286.82,151.7Z" style="fill:#263238"></path><path d="M288.87,115c2.11,15.33-12.41,56.31-24.32,64.05-17.27,11.22-42.15,8.55-50.82-11.43-8.42-19.37,11.45-72.44,24.44-79.12C257.3,78.66,285.76,92.36,288.87,115Z" style="fill: rgb(235, 148, 129);"></path><path d="M247,134.62c.05-.1.17.21.12.32-1.05,2.72-1.79,6,.38,7.8.07.06,0,.19-.08.15C244.53,141.4,245.57,137,247,134.62Z" style="fill:#263238"></path><path d="M250.46,132.6c4.55,1.22,1.79,10.22-2.42,9.1S246.65,131.59,250.46,132.6Z" style="fill:#263238"></path><path d="M230.27,128.65c0-.11-.26.07-.29.19-.75,2.82-2.08,5.92-4.88,6.09-.09,0-.13.15,0,.17C228.29,135.59,230,131.45,230.27,128.65Z" style="fill:#263238"></path><path d="M228.65,125c-4.39-1.69-7.44,7.22-3.38,8.78S232.33,126.4,228.65,125Z" style="fill:#263238"></path><path d="M256.45,125.94a37.87,37.87,0,0,0-3.77-.83c-1.46-.3-2.58-.69-4-.11a2,2,0,0,0-1,2.22c.54,1.81,2.22,2.62,4,3.05a7.2,7.2,0,0,0,5.2-.46A2.12,2.12,0,0,0,256.45,125.94Z" style="fill:#263238"></path><path d="M228.75,114.86a35.6,35.6,0,0,0,3.86.17c1.48,0,2.66.24,4-.58a2,2,0,0,0,.61-2.35c-.85-1.69-2.65-2.2-4.43-2.33a7.21,7.21,0,0,0-5,1.35C226.17,112.19,227,114.63,228.75,114.86Z" style="fill:#263238"></path><path d="M239.36,156.64c-3.09-2.51-7.76-3.48-10.75-4-.3-.15-.4-.87-.35-1.19v0c0-.1,2-5.83,2-5.83-.9.15-5.4.68-5-.4,3.42-9,7.23-19,12.53-27.19a.27.27,0,0,1,.48.22c-2.95,8.77-7.42,17-10.51,25.71,1.4-.08,3.73-.32,4.83.05.28.18-2.45,6.05-2.65,7,0,0,6.14.08,9.81,4.44C240.74,156.57,240.84,157.83,239.36,156.64Z" style="fill:#263238"></path><path d="M242.7,162.56c-.86.43-1.81,1.11-2.83.88a7.76,7.76,0,0,1-2.74-1.64.1.1,0,0,0-.16.1,3.88,3.88,0,0,0,3,2.61,3.09,3.09,0,0,0,3-1.74C243,162.62,242.83,162.5,242.7,162.56Z" style="fill:#263238"></path><path d="M280.8,151.55c-6.49-4.46-2-29.73-2-29.73L273,134.57s-4-6.31-4.62-13.11c-.43-4.85,2.14-10.58,3.81-13.26,0,0-10.74,5.66-20.72,5-3.67-.24-28.46-8.71-27.94-10.26C225,98.34,240.34,85.21,248,83.06c8.83-2.48,20.7-3.76,33.62,6.91s13.6,21.52,13.31,29.65S283.18,153.19,280.8,151.55Z" style="fill:#263238"></path><path d="M273.65,149.67s13-10.75,18.13-5.76-7.22,22.38-15,23.07a7.49,7.49,0,0,1-8.6-6.56Z" style="fill: rgb(235, 148, 129);"></path><path d="M288.12,148.81c.11,0,.09.19,0,.2-5.53.64-9.43,4.53-12.59,8.81,2-1.43,4.29-1.88,6.27.56.1.13-.08.3-.21.23a4.62,4.62,0,0,0-5.32.2,22.83,22.83,0,0,0-3.43,3.31c-.36.38-1.09-.08-.78-.55a.61.61,0,0,1,.07-.1C273.74,155.09,281.12,147.56,288.12,148.81Z" style="fill:#263238"></path><path d="M263.82,81.28a61.1,61.1,0,0,1,17.77.67c6.51,1.34,25.7,9.56,29.08,15.11s-1.68,24.54-2.48,27.3-7.59,18.76-14.88,20.71,1.62-26.14-4.62-38.58S263.82,81.28,263.82,81.28Z" style="fill:#C26C25"></path><path d="M263.81,81.28s18.64,12.77,24.87,25.21S286,147,293.32,145.07c3.21-.85,5.36-3,7.92-7,1.53-8.57,2.53-22.33-1.29-33.4-3.57-10.37-13.11-18.23-24.38-23.54A69.94,69.94,0,0,0,263.81,81.28Z" style="opacity:0.1"></path><path d="M286.06,161.07c2-7.61,1.2-30.07-2.85-44.17S258.12,88.22,254.8,87.3c-8.07-2.23-11.56-.75-12.58-1.88s9.16-4.31,11.84-4.89,9.73-1.69,13.14-.43,23.9,10.56,28.53,22.22,6.93,40.71,2.72,46.51c-1,1.4-3.42,1.7-4.83,3.68-1.85,2.6-3.6,5.75-5.16,7.48C287.2,161.38,285.89,161.73,286.06,161.07Z" style="fill:#C26C25"></path><path d="M283.13,111.16a40.5,40.5,0,0,0,6.42-2,29.46,29.46,0,0,0,6-3.2c.13-.1.3.08.18.19a22.08,22.08,0,0,1-5.8,3.91,18.74,18.74,0,0,1-6.75,1.56C282.91,111.61,282.89,111.21,283.13,111.16Z" style="fill:#263238"></path><path d="M288.66,153.67c.39-.46.9-.82,1.33-1.25a10.12,10.12,0,0,0,1.32-1.6,17.75,17.75,0,0,1,2.07-3.32,13.64,13.64,0,0,1,2.58-1.88,5.25,5.25,0,0,0,2.49-2.52.13.13,0,0,1,.25.08c-.76,2.26-2.82,3.34-4.45,4.9-1,1-1.48,2.38-2.33,3.51a6.15,6.15,0,0,1-3,2.44C288.72,154.07,288.52,153.84,288.66,153.67Z" style="fill:#263238"></path><path d="M288.82,144.77c1-.61,2-1.11,2.95-1.81a25.75,25.75,0,0,0,2.54-2.24c.79-.78,1.51-1.63,2.28-2.43.92-.94,2-1.79,2.82-2.77.11-.13.28.07.17.19-.89,1-1.62,2.2-2.48,3.26a26.83,26.83,0,0,1-2.45,2.55A17.94,17.94,0,0,1,292,143.6a8.32,8.32,0,0,1-3.12,1.3A.07.07,0,0,1,288.82,144.77Z" style="fill:#263238"></path><path d="M288.59,136.59a22.39,22.39,0,0,0,5.6-3.2c1.64-1.3,3.22-2.72,4.78-4.13.1-.1.29.05.19.17a26.94,26.94,0,0,1-4.47,4.77,14.27,14.27,0,0,1-2.7,1.7,14.56,14.56,0,0,1-3.31.94C288.54,136.87,288.44,136.65,288.59,136.59Z" style="fill:#263238"></path><path d="M288,128.63a7.67,7.67,0,0,0,2.65-1.32c.92-.61,1.84-1.25,2.73-1.91s1.73-1.26,2.58-1.9a7.64,7.64,0,0,0,2.26-2.27c.07-.13.29,0,.23.11a7.7,7.7,0,0,1-1.84,2.61,20.53,20.53,0,0,1-2.67,2.34,25.77,25.77,0,0,1-2.95,1.87,5.12,5.12,0,0,1-2.95.83A.18.18,0,0,1,288,128.63Z" style="fill:#263238"></path><path d="M288.89,119.09c.92-.44,1.83-.89,2.71-1.4s1.73-1.07,2.58-1.63,1.78-1.17,2.63-1.82a.13.13,0,0,1,.17.2,20.1,20.1,0,0,1-2.29,2.23,22.19,22.19,0,0,1-2.6,1.79,24.38,24.38,0,0,1-2.78,1.44,8.11,8.11,0,0,1-3,.87.18.18,0,0,1-.11-.32A15,15,0,0,1,288.89,119.09Z" style="fill:#263238"></path><path d="M278.86,105c1.05-.66,2.07-1.31,3.17-1.88a33.21,33.21,0,0,1,3.46-1.51,32.83,32.83,0,0,1,7.08-1.92c.14,0,.24.18.09.24-4.53,1.81-9.15,3.44-13.67,5.3A.13.13,0,0,1,278.86,105Z" style="fill:#263238"></path><path d="M276.53,97.11a16.52,16.52,0,0,1,3.34-1.53,34.69,34.69,0,0,1,7.57-1.38.13.13,0,0,1,.06.25c-2.37.63-4.74,1.21-7.06,2A31.55,31.55,0,0,0,277,97.7c-1.1.5-2.07,1.22-3.14,1.77-.08,0-.19-.06-.13-.14A9.29,9.29,0,0,1,276.53,97.11Z" style="fill:#263238"></path><path d="M271.34,92.1a16.88,16.88,0,0,1,3.14-1.6A19.85,19.85,0,0,1,281,89.16c.15,0,.16.22,0,.25a39.59,39.59,0,0,0-6.38,2c-1,.42-2.05.89-3.07,1.35a32.61,32.61,0,0,1-3,1.5c-.09,0-.14-.09-.08-.15A18,18,0,0,1,271.34,92.1Z" style="fill:#263238"></path><path d="M268.12,86.87c1-.37,2-.68,3-1a9.82,9.82,0,0,1,3.07-.58.13.13,0,0,1,0,.26c-1.93.69-3.86,1.43-5.77,2.16a26.92,26.92,0,0,0-4.87,2.91c-.07.05-.16,0-.11-.12A10,10,0,0,1,268.12,86.87Z" style="fill:#263238"></path><path d="M263,83.78a16.21,16.21,0,0,1,6-1.41c.15,0,.17.24,0,.26a20,20,0,0,0-5.67,1.86,28,28,0,0,0-5.05,3.2c-.08.06-.21,0-.14-.12A13.42,13.42,0,0,1,263,83.78Z" style="fill:#263238"></path><path d="M254.52,84.62a8.84,8.84,0,0,1,1-.91,12.56,12.56,0,0,1,2.34-1.46,27.58,27.58,0,0,1,5.32-1.81c.16,0,.22.21.06.25a23.14,23.14,0,0,0-5.08,2,18.43,18.43,0,0,0-2.27,1.43c-.35.26-.69.54-1,.83a6.42,6.42,0,0,1-1,.84.13.13,0,0,1-.18-.15A3.34,3.34,0,0,1,254.52,84.62Z" style="fill:#263238"></path><path d="M249.91,83.5a18.27,18.27,0,0,1,1.93-1.2,15.9,15.9,0,0,1,2-1c.72-.29,1.46-.54,2.17-.85.17-.08.26.17.08.24a14,14,0,0,0-2.1,1c-.64.37-1.28.72-1.92,1.08l-1.92,1.09a18.93,18.93,0,0,1-1.94,1.14c-.11,0-.19-.08-.11-.17A9.54,9.54,0,0,1,249.91,83.5Z" style="fill:#263238"></path><path d="M355.27,339c17.14,11.13,32-8.3,31.33-22.55-1.6-33.47-33.33-87-52.05-105.21-7-6.8-50.73,32.19-46.75,41.82C292.14,263.55,323.38,318.27,355.27,339Z" style="fill: rgb(235, 148, 129);"></path><path d="M300.68,275.8c6.34,8.69,15.1,20.89,21.53,29.31,7.4,9.54,14.65,19.33,23.88,27.21-16.84-10.9-35.53-38.84-45.41-56.52Z" style="fill:#263238"></path><path d="M290.38,190.83c1.61-6.31-3.78-19.37-3.94-28.47s8-17.2,11-15.24,1.76,5.95,6.72,18.71c3.2,8.21,16.7,21.3,20.83,37C327.1,210.67,288.77,197.15,290.38,190.83Z" style="fill: rgb(235, 148, 129);"></path><path d="M290.38,190.83c1.61-6.31-3.78-19.37-3.94-28.47s8-17.2,11-15.24,1.76,5.95,6.72,18.71c3.2,8.21,16.7,21.3,20.83,37C327.1,210.67,288.77,197.15,290.38,190.83Z" style="fill: rgb(235, 148, 129);"></path><path d="M290.38,190.83c1.61-6.31-3.78-19.37-3.94-28.47s8-17.2,11-15.24,1.76,5.95,6.72,18.71c3.2,8.21,16.7,21.3,20.83,37C327.1,210.67,288.77,197.15,290.38,190.83Z" style="opacity:0.1"></path><path d="M239.92,168.74c-2.94,7.6,16.4,13.26,16.4,13.26s-5.53,1-8.63,5.47c-3.56,5.07,2.83,12.86,2.83,12.86a18.56,18.56,0,0,0-8.18,7.22c-2.91,5.19,2.41,14,2.41,14s-3.87,4.81-3.19,10.88c1.15,10.37,16.08,16.26,24.6,21.74,9.13,5.87,31.13,7.53,36.11,12.42l33.86-52.95s-31.08-39.17-42.52-42.92C284,167.55,244.41,157.14,239.92,168.74Z" style="fill: rgb(235, 148, 129);"></path><path d="M256.55,181.84c11.05.9,21.86,4.44,32.25,8a.19.19,0,0,1-.13.36c-10.29-3.63-21.8-4.6-32.22-7.81A.27.27,0,0,1,256.55,181.84Z" style="fill:#263238"></path><path d="M251.09,199.66a28.92,28.92,0,0,1,7.2,2.3c2.48,1,4.95,2,7.41,3.08q7.37,3.21,14.58,6.78c.21.11.1.46-.13.36-4.9-2.12-9.83-4.17-14.82-6.08q-3.75-1.44-7.51-2.82a34.14,34.14,0,0,1-7-2.92A.39.39,0,0,1,251.09,199.66Z" style="fill:#263238"></path><path d="M245,221.61c2.18.16,4.41,1.51,6.37,2.41q3.33,1.53,6.67,3c4.46,2,8.92,4,13.45,5.81.22.1.1.45-.13.36-4.61-1.84-9.24-3.62-13.83-5.5-2.26-.92-4.5-1.86-6.75-2.81-1.91-.81-4.38-1.6-5.89-3.08A.14.14,0,0,1,245,221.61Z" style="fill:#263238"></path><path d="M246.44,241.13c-6.19-5.78-7.19-13-2-19.89l0,.71c-2.67-4.23-5.12-9.71-2.91-14.7a15.63,15.63,0,0,1,9.06-7.81l-.43,1.59c-5.35-5.33-6.64-15.5,1.29-19.08a9.45,9.45,0,0,1,3.21-.78l-.28,1.89c-5-1.88-9.83-4.06-13.53-8-3.46-3.86-2.26-8.72,2.85-10.13,6.31-1.78,13-1.15,19.38-.59a153.12,153.12,0,0,1,15.24,2.33,159.25,159.25,0,0,0-23-1.83,37.06,37.06,0,0,0-11.21,1.4c-2.2.69-4.19,2.29-3.65,4.76,1.56,5.32,9.69,8.38,14.5,10.26l4.46,1.57-4.74.32a7.56,7.56,0,0,0-6.87,6.69c-.62,4.15,1.89,8.19,4.72,11l-1.48.45a14,14,0,0,0-8,6.73c-2,4.29.22,9.4,2.41,13.26l.24.39-.26.33c-5.31,6.44-4.5,13.11,1,19.14Z" style="fill:#263238"></path></g></svg>