<svg xmlns="http://www.w3.org/2000/svg" viewBox="0 0 750 500"><g id="freepik--background-complete--inject-74"><path d="M145.5,185.58a2.07,2.07,0,0,1,0-2.17c.11-.18.21-.37.31-.55s.2-.39.29-.58a2.1,2.1,0,0,1,1.79-1.21l2.67-.08-.27-8.68-2.66.08a2.06,2.06,0,0,1-1.88-1.09,11.67,11.67,0,0,0-.68-1.1,2.06,2.06,0,0,1-.13-2.15l1.25-2.34-7.65-4.11-1.26,2.34a2,2,0,0,1-1.87,1.08c-.43,0-.86,0-1.29,0a2.08,2.08,0,0,1-1.95-.95l-1.4-2.27-7.38,4.58,1.41,2.28a2,2,0,0,1,0,2.15c-.11.18-.21.37-.31.56s-.2.38-.29.57a2,2,0,0,1-1.8,1.21l-2.66.08L120,182l2.65-.09a2.1,2.1,0,0,1,1.88,1.09,10.65,10.65,0,0,0,.68,1.11,2,2,0,0,1,.14,2.15l-1.26,2.34,7.66,4.11,1.25-2.34a2.06,2.06,0,0,1,1.88-1.08,11.36,11.36,0,0,0,1.3,0,2.05,2.05,0,0,1,1.94,1l1.4,2.26,7.38-4.58Zm-13.7-2.18a7.11,7.11,0,1,1,9.63-2.91A7.11,7.11,0,0,1,131.8,183.4Z" style="fill:#ebebeb"></path><path d="M646.12,290.62a4.51,4.51,0,0,1-1.75-4.37q.11-.67.18-1.38c0-.46.08-.93.11-1.39a4.45,4.45,0,0,1,2.6-3.9l5.28-2.36L644.85,260l-5.29,2.36a4.49,4.49,0,0,1-4.66-.65,24.82,24.82,0,0,0-2.27-1.65,4.47,4.47,0,0,1-2-4.22l.59-5.74-18.76-1.94-.6,5.74a4.48,4.48,0,0,1-2.87,3.71,25.61,25.61,0,0,0-2.56,1.15,4.5,4.5,0,0,1-4.7-.32L597,255.05l-11,15.28,4.71,3.41a4.48,4.48,0,0,1,1.74,4.34q-.1.69-.18,1.38c-.05.46-.08.93-.11,1.39a4.48,4.48,0,0,1-2.61,3.91l-5.29,2.36,7.69,17.22,5.27-2.36a4.46,4.46,0,0,1,4.66.64c.73.59,1.5,1.14,2.29,1.66a4.48,4.48,0,0,1,2.06,4.21l-.6,5.75,18.77,1.94.59-5.74a4.48,4.48,0,0,1,2.88-3.71,25.85,25.85,0,0,0,2.57-1.16,4.5,4.5,0,0,1,4.7.33l4.67,3.39L650.81,294Zm-29.33,6.92a15.45,15.45,0,1,1,17-13.78A15.46,15.46,0,0,1,616.79,297.54Z" style="fill:#ebebeb"></path><path d="M680.79,64.47a3.14,3.14,0,0,1-1.54-2.92c0-.32,0-.65,0-1s0-.66,0-1a3.13,3.13,0,0,1,1.53-2.91l3.51-2-6.6-11.44-3.51,2a3.14,3.14,0,0,1-3.3-.11,16.77,16.77,0,0,0-1.7-1,3.14,3.14,0,0,1-1.73-2.79v-4H654.23v4a3.14,3.14,0,0,1-1.73,2.79,18.1,18.1,0,0,0-1.71,1,3.12,3.12,0,0,1-3.29.11l-3.51-2-6.61,11.44,3.53,2a3.12,3.12,0,0,1,1.53,2.9c0,.33,0,.65,0,1s0,.65,0,1a3.14,3.14,0,0,1-1.54,2.91l-3.52,2L644,77.93l3.5-2a3.12,3.12,0,0,1,3.29.11,18.1,18.1,0,0,0,1.71,1,3.14,3.14,0,0,1,1.74,2.79v4h13.22v-4A3.15,3.15,0,0,1,669.18,77a19.62,19.62,0,0,0,1.72-1,3.12,3.12,0,0,1,3.29-.11l3.5,2,6.6-11.44ZM660.84,71.4a10.82,10.82,0,1,1,10.82-10.82A10.83,10.83,0,0,1,660.84,71.4Z" style="fill:#ebebeb"></path><path d="M109.11,127.29a3.16,3.16,0,0,1-1.54-2.92c0-.32,0-.65,0-1s0-.66,0-1a3.16,3.16,0,0,1,1.53-2.91l3.52-2L106,106l-3.51,2a3.14,3.14,0,0,1-3.29-.12,16.08,16.08,0,0,0-1.71-1,3.16,3.16,0,0,1-1.73-2.8v-4H82.55v4a3.16,3.16,0,0,1-1.73,2.8,16.08,16.08,0,0,0-1.71,1,3.14,3.14,0,0,1-3.29.12l-3.51-2-6.6,11.45,3.52,2a3.14,3.14,0,0,1,1.53,2.91c0,.32,0,.64,0,1s0,.65,0,1a3.14,3.14,0,0,1-1.54,2.92l-3.51,2,6.6,11.45,3.5-2a3.14,3.14,0,0,1,3.29.11,19.62,19.62,0,0,0,1.72,1,3.16,3.16,0,0,1,1.73,2.8v4H95.77v-4a3.15,3.15,0,0,1,1.74-2.8,18.1,18.1,0,0,0,1.71-1,3.14,3.14,0,0,1,3.29-.11l3.5,2,6.61-11.45Zm-19.94,6.94A10.83,10.83,0,1,1,100,123.4,10.83,10.83,0,0,1,89.17,134.23Z" style="fill:#ebebeb"></path><path d="M71.73,233.05V377.5h87.32V233.05Zm7.92,53.54h71.47v37.6H79.65Zm0-46.56h71.47v37.6H79.65Z" style="fill:#ebebeb"></path><rect x="36.8" y="233.05" width="34.92" height="144.45" transform="translate(108.52 610.55) rotate(180)" style="fill:#dbdbdb"></rect><rect x="134.14" y="240.02" width="16.98" height="37.6" transform="translate(285.26 517.65) rotate(180)" style="fill:#dbdbdb"></rect><path d="M151.05,368.81H79.28v-36.6h71.77Zm-71-.75H150.3V333H80Z" style="fill:#dbdbdb"></path><rect x="111.09" y="342.67" width="14.11" height="7.14" transform="translate(236.28 692.47) rotate(180)" style="fill:#dbdbdb"></rect><path d="M121.4,349.64H106.54v-6.81H121.4Zm-14.11-.75h13.36v-5.31H107.29Z" style="fill:#dbdbdb"></path><rect x="134.14" y="286.59" width="16.98" height="37.6" transform="translate(285.26 610.78) rotate(180)" style="fill:#dbdbdb"></rect><rect x="527.81" y="55.29" width="118.54" height="79.88" style="fill:#fff"></rect><path d="M646.84,135.67H527.31V54.79H646.84Zm-118.53-1H645.84V55.79H528.31Z" style="fill:#ebebeb"></path><path d="M539.26,61.33a2.73,2.73,0,1,1-2.73-2.73A2.73,2.73,0,0,1,539.26,61.33Z" style="fill:#a6a6a6"></path><path d="M550.41,61.33a2.73,2.73,0,1,1-2.73-2.73A2.73,2.73,0,0,1,550.41,61.33Z" style="fill:#ebebeb"></path><path d="M561.56,61.33a2.73,2.73,0,1,1-2.73-2.73A2.73,2.73,0,0,1,561.56,61.33Z" style="fill:#c7c7c7"></path><rect x="527.81" y="66.82" width="118.54" height="1" style="fill:#ebebeb"></rect></g><g id="freepik--Floor--inject-74"><polygon points="36.33 377.32 121 376.94 205.66 376.8 375 376.53 544.34 376.8 629 376.93 713.67 377.32 629 377.71 544.34 377.85 375 378.11 205.66 377.85 121 377.71 36.33 377.32" style="fill:#263238"></polygon></g><g id="freepik--Device--inject-74"><rect x="136.19" y="80.84" width="465.35" height="311.29" style="fill:#dbdbdb"></rect><rect x="139.57" y="84.63" width="458.59" height="303.69" style="fill:#263238"></rect><rect x="75.58" y="415.47" width="586.57" height="21.36" style="fill:#c7c7c7"></rect><polygon points="75.58 415.47 136.19 392.12 601.54 392.12 662.15 415.47 75.58 415.47" style="fill:#dbdbdb"></polygon><polygon points="141.6 407.19 180.71 392.12 557.01 392.12 596.13 407.19 141.6 407.19" style="fill:#263238"></polygon><rect x="165.48" y="107.71" width="406.76" height="257.55" style="fill:#fff"></rect><rect x="165.48" y="107.71" width="406.76" height="9.91" style="fill:#455a64"></rect><path d="M174.41,112.66a2,2,0,1,1-2-2A2,2,0,0,1,174.41,112.66Z" style="fill:#c7c7c7"></path><path d="M182.55,112.66a2,2,0,1,1-2-2A2,2,0,0,1,182.55,112.66Z" style="fill:#fff"></path><path d="M190.68,112.66a2,2,0,1,1-2-2A2,2,0,0,1,190.68,112.66Z" style="fill:#C26C25"></path><rect x="185.02" y="138.46" width="158.19" height="110.78" transform="translate(528.22 387.69) rotate(180)" style="fill:#C26C25"></rect><rect x="185.02" y="138.46" width="158.19" height="110.78" transform="translate(528.22 387.69) rotate(180)" style="fill:#fff;opacity:0.6000000000000001"></rect><path d="M203.51,170a13.11,13.11,0,1,0,13.1-13.11A13.1,13.1,0,0,0,203.51,170Z" style="fill:#C26C25"></path><polygon points="255.24 225.36 343.2 225.36 299.22 165.75 255.24 225.36" style="fill:#C26C25"></polygon><polygon points="255.24 225.36 343.2 225.36 299.22 165.75 255.24 225.36" style="opacity:0.1"></polygon><polygon points="220.78 225.42 293.4 225.42 257.09 186.59 220.78 225.42" style="fill:#C26C25"></polygon><rect x="185.02" y="225.36" width="158.19" height="23.87" style="fill:#C26C25"></rect><rect x="365.71" y="264.06" width="88.39" height="79.97" transform="translate(819.8 608.09) rotate(180)" style="fill:#ebebeb"></rect><path d="M377.12,281.55a9.47,9.47,0,1,0,7.43-7.43A9.48,9.48,0,0,0,377.12,281.55Z" style="fill:#dbdbdb"></path><polygon points="390.59 326.8 454.1 326.8 422.34 283.76 390.59 326.8" style="fill:#c7c7c7"></polygon><polygon points="365.71 326.84 418.14 326.84 391.92 298.81 365.71 326.84" style="fill:#dbdbdb"></polygon><rect x="365.71" y="326.8" width="88.39" height="17.23" style="fill:#dbdbdb"></rect><rect x="365.71" y="138.46" width="141.78" height="7.15" style="fill:#a6a6a6"></rect><rect x="365.71" y="153.26" width="172.61" height="7.15" style="fill:#ebebeb"></rect><rect x="365.71" y="168.07" width="172.61" height="7.15" style="fill:#ebebeb"></rect><rect x="365.71" y="182.88" width="172.61" height="7.15" style="fill:#ebebeb"></rect><rect x="365.71" y="197.69" width="172.61" height="7.15" style="fill:#ebebeb"></rect><rect x="365.71" y="212.5" width="114.59" height="7.15" style="fill:#ebebeb"></rect><rect x="461.98" y="264.06" width="62.71" height="7.04" style="fill:#a6a6a6"></rect><rect x="461.98" y="278.65" width="76.34" height="7.04" style="fill:#ebebeb"></rect><rect x="461.98" y="293.23" width="76.34" height="7.04" style="fill:#ebebeb"></rect><rect x="461.98" y="307.82" width="76.34" height="7.04" style="fill:#ebebeb"></rect><rect x="461.98" y="322.4" width="76.34" height="7.04" style="fill:#ebebeb"></rect><rect x="461.98" y="336.99" width="51.81" height="7.04" style="fill:#ebebeb"></rect><rect x="365.71" y="228.2" width="172.61" height="21.03" style="fill:#C26C25"></rect><rect x="185.02" y="264.06" width="158.19" height="21.03" style="fill:#455a64"></rect><rect x="185.02" y="292.74" width="158.19" height="7.11" style="fill:#ebebeb"></rect><rect x="185.02" y="307.47" width="158.19" height="7.11" style="fill:#ebebeb"></rect><rect x="185.02" y="322.2" width="158.19" height="7.11" style="fill:#ebebeb"></rect><rect x="185.02" y="336.92" width="108.38" height="7.11" style="fill:#ebebeb"></rect><rect x="561.36" y="117.62" width="10.88" height="247.64" style="fill:#dbdbdb"></rect><path d="M566.79,247.22h0a2.8,2.8,0,0,1-2.8-2.81V122.88a2.8,2.8,0,0,1,2.8-2.81h0a2.81,2.81,0,0,1,2.81,2.81V244.41A2.81,2.81,0,0,1,566.79,247.22Z" style="fill:#a6a6a6"></path></g><g id="freepik--Window--inject-74"><rect x="116.97" y="58.91" width="186.12" height="117.42" style="fill:#37474f"></rect><rect x="116.97" y="58.91" width="186.12" height="10.34" style="fill:#C26C25"></rect><rect x="128.07" y="89.82" width="5.53" height="2.02" style="fill:#ebebeb"></rect><rect x="137.63" y="89.82" width="89.31" height="2.02" style="fill:#ebebeb"></rect><rect x="230.34" y="89.82" width="10.5" height="2.02" style="fill:#C26C25"></rect><rect x="247.15" y="116.85" width="10.5" height="2.02" style="fill:#ebebeb"></rect><rect x="243.12" y="89.82" width="35.41" height="2.02" style="fill:#a6a6a6"></rect><rect x="133.6" y="95.23" width="5.53" height="2.02" style="fill:#ebebeb"></rect><rect x="143.02" y="95.23" width="41.63" height="2.02" style="fill:#a6a6a6"></rect><rect x="228.9" y="116.85" width="15.75" height="2.02" style="fill:#a6a6a6"></rect><rect x="137.63" y="111.45" width="39.76" height="2.02" style="fill:#a6a6a6"></rect><rect x="143.02" y="100.63" width="27.89" height="2.02" style="fill:#C26C25"></rect><rect x="237.36" y="106.04" width="27.89" height="2.02" style="fill:#a6a6a6"></rect><rect x="174.01" y="100.63" width="70.42" height="2.02" style="fill:#a6a6a6"></rect><rect x="137.63" y="116.85" width="87.68" height="2.02" style="fill:#C26C25"></rect><rect x="241.95" y="95.23" width="46.07" height="2.02" style="fill:#C26C25"></rect><rect x="187.26" y="95.23" width="52.41" height="2.02" style="fill:#ebebeb"></rect><rect x="263.78" y="100.63" width="17.9" height="2.02" style="fill:#ebebeb"></rect><rect x="133.6" y="100.63" width="5.53" height="2.02" style="fill:#ebebeb"></rect><rect x="128.07" y="106.04" width="5.53" height="2.02" style="fill:#a6a6a6"></rect><rect x="137.63" y="106.04" width="32.68" height="2.02" style="fill:#ebebeb"></rect><rect x="143.02" y="122.26" width="32.68" height="2.02" style="fill:#ebebeb"></rect><rect x="229.84" y="127.66" width="42.1" height="2.02" style="fill:#C26C25"></rect><rect x="178.35" y="122.26" width="58.65" height="2.02" style="fill:#C26C25"></rect><rect x="172.57" y="127.66" width="54.41" height="2.02" style="fill:#ebebeb"></rect><rect x="143.02" y="127.66" width="9.46" height="2.02" style="fill:#a6a6a6"></rect><rect x="179.64" y="111.45" width="61.2" height="2.02" style="fill:#ebebeb"></rect><rect x="243.12" y="111.45" width="39.73" height="2.02" style="fill:#C26C25"></rect><rect x="173.63" y="106.04" width="61.16" height="2.02" style="fill:#C26C25"></rect><rect x="128.07" y="111.45" width="5.53" height="2.02" style="fill:#ebebeb"></rect><rect x="128.07" y="116.85" width="5.53" height="2.02" style="fill:#ebebeb"></rect><rect x="133.6" y="122.26" width="5.53" height="2.02" style="fill:#a6a6a6"></rect><rect x="133.6" y="127.66" width="5.53" height="2.02" style="fill:#ebebeb"></rect><rect x="128.07" y="132.19" width="5.53" height="2.02" style="fill:#ebebeb"></rect><rect x="137.63" y="132.19" width="64.84" height="2.02" style="fill:#ebebeb"></rect><rect x="133.6" y="137.6" width="5.53" height="2.02" style="fill:#ebebeb"></rect><rect x="143.02" y="137.6" width="41.63" height="2.02" style="fill:#a6a6a6"></rect><rect x="137.63" y="153.81" width="39.76" height="2.02" style="fill:#a6a6a6"></rect><rect x="143.02" y="143" width="27.89" height="2.02" style="fill:#C26C25"></rect><rect x="174.01" y="143" width="70.42" height="2.02" style="fill:#a6a6a6"></rect><rect x="137.63" y="159.22" width="87.68" height="2.02" style="fill:#C26C25"></rect><rect x="241.95" y="137.6" width="46.07" height="2.02" style="fill:#C26C25"></rect><rect x="187.26" y="137.6" width="52.41" height="2.02" style="fill:#ebebeb"></rect><rect x="263.78" y="143" width="17.9" height="2.02" style="fill:#ebebeb"></rect><rect x="133.6" y="143" width="5.53" height="2.02" style="fill:#ebebeb"></rect><rect x="128.07" y="148.41" width="5.53" height="2.02" style="fill:#a6a6a6"></rect><rect x="137.63" y="148.41" width="32.68" height="2.02" style="fill:#ebebeb"></rect><rect x="179.64" y="153.81" width="61.2" height="2.02" style="fill:#ebebeb"></rect><rect x="173.63" y="148.41" width="61.16" height="2.02" style="fill:#C26C25"></rect><rect x="128.07" y="153.81" width="5.53" height="2.02" style="fill:#ebebeb"></rect><path d="M131.48,84.5a.49.49,0,0,1,0,.69.46.46,0,0,1-.33.13.51.51,0,0,1-.35-.13L128.67,83s0,0,0,0l0,0a.07.07,0,0,1,0-.06s0,0,0,0,0,0,0,0,0,0,0,0v-.06s0,0,0,0V82.6s0,0,0,0a.13.13,0,0,1,0-.06s0,0,0,0,0,0,0-.07a0,0,0,0,1,0,0,.12.12,0,0,1,0,0l2.13-2.17a.5.5,0,0,1,.68,0,.49.49,0,0,1,0,.69l-1.79,1.81Z" style="fill:#C26C25"></path><path d="M133.42,84.75l1.86-4.43a.42.42,0,0,1,.55-.22.41.41,0,0,1,.21.54l-1.86,4.43a.41.41,0,0,1-.38.25.25.25,0,0,1-.15,0A.4.4,0,0,1,133.42,84.75Z" style="fill:#C26C25"></path><path d="M139.72,83a0,0,0,0,1,0,0s0,0-.06,0l-2.13,2.17a.51.51,0,0,1-.68,0,.49.49,0,0,1,0-.69l1.8-1.81-1.8-1.81a.49.49,0,0,1,0-.69.5.5,0,0,1,.68,0l2.13,2.17s0,0,.06,0a0,0,0,0,1,0,0s0,0,0,.07,0,0,0,0a.64.64,0,0,1,0,.07s0,0,0,0v.09s0,0,0,0v.06h0s0,.06,0,.07,0,0,0,0S139.73,82.93,139.72,83Z" style="fill:#C26C25"></path><path d="M126.39,64.15a2.27,2.27,0,1,1-2.27-2.27A2.27,2.27,0,0,1,126.39,64.15Z" style="fill:#263238"></path><circle cx="133.38" cy="64.15" r="2.27" style="fill:#fff"></circle><path d="M144.92,64.15a2.27,2.27,0,1,1-2.27-2.27A2.27,2.27,0,0,1,144.92,64.15Z" style="fill:#455a64"></path></g><g id="freepik--Character--inject-74"><path d="M574.37,168.73c14.72,8.33,41.51,33.66,39.54,40.71-4,14.2-21.75,33.78-26.49,37.63-2.75,2.24-24.76-15.61-22.17-18.38,3-3.24,21.81-20.76,21.85-22.49,0-1.31-10.69-15.4-18.6-27.38C559.33,164.91,567.35,164.76,574.37,168.73Z" style="fill:#eb9481"></path><path d="M568.16,226.8s-9.08,5.84-14.83,9.94c-3.21,2.28-8.37,6.69-10,9.45-2.38,4.13-9.7,22.9-5.18,24.78,4.08,1.69,8.32-15.24,8.32-15.24s-5.78,16.71-.49,17.84,7.54-18.63,7.54-18.63-5.56,17.3.09,17.61C557.91,272.78,561,255,561,255s-4.68,14.9-.3,15.33c4.83.48,8.67-15.77,8.67-15.77,11.31-.78,18-5.28,20.14-11.07C589.89,242.32,568.16,226.8,568.16,226.8Z" style="fill:#eb9481"></path><path d="M548.14,249.83c-.75,1.93-1.52,3.89-2.1,5.89s-1.08,4-1.47,6.06a35.48,35.48,0,0,0-.75,8.09c.25-4.83,2.2-12,2.78-14s1-4,1.62-6A0,0,0,0,0,548.14,249.83Z" style="fill:#263238"></path><path d="M555.39,251.77c-.85,2.52-1.78,5-2.52,7.54s-1.22,5-1.78,7.6c0,.2.08.16.13,0,.66-2.56,1.47-4.88,2.17-7.43s1.28-5.13,2.07-7.65C555.47,251.75,555.41,251.74,555.39,251.77Z" style="fill:#263238"></path><path d="M561.92,252.33a59.37,59.37,0,0,0-3,11.82c0,.2.12.12.17-.08.91-3.94,1.61-7.05,2.95-11.69C562.07,252.31,562,252.25,561.92,252.33Z" style="fill:#263238"></path><path d="M569.73,223.77l22,22.6s24.78-29.3,23.26-38.7-25.73-31.55-39-38.88-14.35.18-8.46,10.08,18.77,27.37,18.52,27.86S569.73,223.77,569.73,223.77Z" style="fill:#ebebeb"></path><path d="M584.63,230.63c-1.57-1.48-3.11-3-4.64-4.5-.74-.72-1.49-1.44-2.2-2.19s-1.62-1.57-2.33-2.43c-.05-.06,0-.13.08-.09.9.66,1.71,1.47,2.56,2.18s1.55,1.37,2.32,2.06c1.6,1.45,3.2,2.89,4.77,4.37,3.13,3,6.17,6,9.19,9.1a.08.08,0,0,1-.11.12C591,236.43,587.78,233.58,584.63,230.63Z" style="fill:#263238"></path><path d="M567.54,178.87c5.88,9.91,18.77,27.38,18.52,27.86s-16.33,17-16.33,17l22,22.61s11.46-13.56,18.32-25.2l-44.32-54.89C563,167.75,564,172.87,567.54,178.87Z" style="fill:#c7c7c7"></path><path d="M610.52,389s1,40.78,1,40.81c0,7.54-.18,14.14-.58,17.56v.05a5.27,5.27,0,0,1-.57,2.33s0,0,0,0c-2.25,1.52-62.49,3.08-64.61,2.43s-.43-6.75,1.86-8.67,25.1-12.84,25.1-12.84L572.05,390Z" style="fill:#eb9481"></path><path d="M611.62,421.74s-.07,8.06-.07,8.09c0,7.54-.18,14.14-.58,17.56v.05a10.62,10.62,0,0,1-.57,2.33s0,0,0,0c-2.25,1.52-62.49,3.08-64.61,2.43s-.43-6.75,1.86-8.67,25.1-12.84,25.1-12.84l-.05-8.22Z" style="fill:#fff"></path><path d="M569,430.75c4-.66,8.88.06,11.88,3,.11.11,0,.27-.18.23a56.31,56.31,0,0,0-11.7-2.7A.25.25,0,0,1,569,430.75Z" style="fill:#263238"></path><path d="M566.1,432.43c4-.66,8.88.05,11.87,3,.12.11,0,.27-.17.23a56.46,56.46,0,0,0-11.7-2.7A.25.25,0,0,1,566.1,432.43Z" style="fill:#263238"></path><path d="M563.17,434.1c4-.66,8.89.06,11.88,3,.12.12,0,.28-.17.23a56.43,56.43,0,0,0-11.7-2.69A.26.26,0,0,1,563.17,434.1Z" style="fill:#263238"></path><path d="M545.75,452.24c2.12.65,62.36-.91,64.61-2.43.87-.56,1.15-9.35,1.19-20v-.33l-38.88.57,0,.66s-22.79,10.91-25.1,12.84S543.62,451.59,545.75,452.24Z" style="fill:#37474f"></path><path d="M611.55,429.49v.35c0,10.62-.32,19.41-1.19,20s-14.08,1.39-28.19,1.9c-16.88.59-35.27.89-36.42.53-2.13-.65-.42-6.75,1.86-8.67s25.1-12.84,25.1-12.84l0-.65,13-.2Z" style="fill:#C26C25"></path><path d="M546.37,449.89c10.15-.52,51.12-1.63,61.19-1.36.09,0,.09.05,0,.06-10,.73-51,1.51-61.19,1.46C546.16,450.05,546.15,449.9,546.37,449.89Z" style="fill:#263238"></path><path d="M585.64,429.88c-1,6.51-2.4,16.11-3.47,21.83-16.88.59-35.27.89-36.42.53-2.13-.65-.42-6.75,1.86-8.67s25.1-12.84,25.1-12.84l0-.65Z" style="opacity:0.1"></path><path d="M615.06,430.05l-43.6.42s-2.47-71-2.66-94.65c-.21-27,1.32-108.13,1.32-108.13h32.59s8.75,17.87,3.75,38L605.08,338Z" style="fill:#37474f"></path><path d="M611.82,422.42a30.82,30.82,0,0,0-3.47-.28c-1.29-.09-2.57-.19-3.86-.24q-3.72-.15-7.44-.16c-5,0-10,0-15,.18-2.84.09-5.69.2-8.53.36-.11,0-.11.18,0,.18,5,.18,9.93.26,14.89.36s9.93.19,14.88.09c1.43,0,2.85,0,4.27-.12s2.88,0,4.27-.2C611.89,422.57,611.92,422.44,611.82,422.42Z" style="fill:#263238"></path><path d="M574.6,383.24q-.75-17.6-1.2-35.22-1-35.24-.51-70.48c.17-13.18.52-26.35.91-39.53,0-.15-.22-.14-.23,0-1.25,23.58-1.72,47.22-1.75,70.83s.46,47,1.62,70.47c.65,13.17,1.46,26.35,2.7,39.48a.09.09,0,0,0,.18,0C575.79,406.94,575.12,395.1,574.6,383.24Z" style="fill:#263238"></path><path d="M563.89,395.5s-.34,39.42-.34,39.44c0,7.54-.18,14.15-.57,17.56a.07.07,0,0,1,0,.05,5.12,5.12,0,0,1-.57,2.33.1.1,0,0,1,0,.05c-2.25,1.51-62.49,3.07-64.61,2.42s-.42-6.74,1.87-8.67,25.09-12.84,25.09-12.84l.71-39.39Z" style="fill:#eb9481"></path><path d="M563.62,426.85s-.07,8.07-.07,8.09c0,7.54-.18,14.15-.57,17.56a.07.07,0,0,1,0,.05,10.27,10.27,0,0,1-.57,2.33.1.1,0,0,1,0,.05c-2.25,1.51-62.49,3.07-64.61,2.42s-.42-6.74,1.87-8.67,25.09-12.84,25.09-12.84l0-8.21Z" style="fill:#fff"></path><path d="M521,435.86c4-.66,8.89.06,11.88,3,.11.11,0,.28-.18.23a56.29,56.29,0,0,0-11.7-2.69A.26.26,0,0,1,521,435.86Z" style="fill:#263238"></path><path d="M518.1,437.54c4-.66,8.88.06,11.88,3,.11.11-.05.27-.18.23a55.66,55.66,0,0,0-11.7-2.69A.26.26,0,0,1,518.1,437.54Z" style="fill:#263238"></path><path d="M515.18,439.22c4-.66,8.88,0,11.88,3,.11.11,0,.27-.18.23a56.46,56.46,0,0,0-11.7-2.7A.25.25,0,0,1,515.18,439.22Z" style="fill:#263238"></path><path d="M497.75,457.35c2.12.66,62.36-.91,64.61-2.42.87-.56,1.15-9.36,1.19-20v-.33l-38.87.57,0,.66s-22.79,10.92-25.09,12.84S495.63,456.71,497.75,457.35Z" style="fill:#C26C25"></path><path d="M498.37,455c10.15-.51,51.13-1.62,61.2-1.36.08,0,.08.06,0,.06-10.05.73-51,1.51-61.19,1.47C498.16,455.16,498.16,455,498.37,455Z" style="fill:#263238"></path><path d="M583.8,269.41s-17.88,56.36-18.2,66.73c-.28,8.83.85,99.45.85,99.45l-45.27.27s3.82-92.42,4.53-101.62c1.32-17.21,16.4-64.46,27.18-106.55H601.7s-.43,22-10.45,38C591.25,265.67,586.71,267.78,583.8,269.41Z" style="fill:#37474f"></path><path d="M564.05,427.25c-5.23-.15-10.66-.31-15.89-.18s-10.39.21-15.57.52c-2.94.17-5.87.27-8.8.56a.08.08,0,0,0,0,.16c5.23.3,10.48.24,15.71.2s10.38-.11,15.57-.34c2.94-.14,5.87-.29,8.81-.49C564.19,427.66,564.36,427.26,564.05,427.25Z" style="fill:#263238"></path><path d="M554.15,254.25c-1.62,5.38-3,10.85-4.42,16.28s-2.91,11-4.35,16.44c-2.79,10.6-5.55,21.22-7.64,32a193.13,193.13,0,0,0-3.62,32.78c-.24,11.23,0,22.46.07,33.69s.17,22.56.36,33.85c0,1.4.06,2.8.11,4.21a.11.11,0,0,0,.21,0c.3-11.22.14-22.47.1-33.69s-.18-22.46-.08-33.69a202.45,202.45,0,0,1,2.87-33.25c1.9-10.8,4.56-21.45,7.32-32.06,1.57-6.05,3.16-12.1,4.73-18.15s3.27-12.17,4.66-18.31A.16.16,0,0,0,554.15,254.25Z" style="fill:#263238"></path><path d="M572.61,270.5a41,41,0,0,0,6.72-.61,66.78,66.78,0,0,0,6.51-1.81,50.94,50.94,0,0,1,6.39-1,22.39,22.39,0,0,0,6.26-1.87c.09,0,.17.1.08.14a38.89,38.89,0,0,1-6,2.61c-2.15.67-4.39.77-6.57,1.3a53.27,53.27,0,0,1-6.7,1.54,24.39,24.39,0,0,1-6.72-.11C572.5,270.63,572.52,270.5,572.61,270.5Z" style="fill:#263238"></path><path d="M569.75,315.34c.43-1.67.83-3.35,1.29-5,.91-3.37,1.84-6.73,2.86-10.07,2-6.63,3.93-13.3,6.07-19.89,1.21-3.74,2.3-7.53,3.72-11.2a.07.07,0,0,1,.14.05c-.71,3.42-1.72,6.76-2.63,10.13s-1.88,6.72-2.85,10.08c-1.93,6.65-3.82,13.33-5.93,19.93-.59,1.85-1.2,3.7-1.83,5.53s-1.17,3.82-2,5.64a.09.09,0,0,1-.17,0C568.78,318.74,569.31,317.05,569.75,315.34Z" style="fill:#263238"></path><path d="M556.64,177.5c3.3.06,8.25-6.45,9.53-10.8a66.44,66.44,0,0,0-2-6.39c-.65-2-1.33-4.33-1.79-6.47L549.68,160a34.93,34.93,0,0,1,3.08,7.92,5.64,5.64,0,0,1,.1.89.86.86,0,0,0,0,.15C553,170.69,553.45,177.44,556.64,177.5Z" style="fill:#eb9481"></path><path d="M552.86,168.82a.81.81,0,0,0,0,.15,8.41,8.41,0,0,0,1.4-.22c7.81-2,8-11.31,7.73-14.73l-12.32,6a35,35,0,0,1,3.08,7.91A6,6,0,0,1,552.86,168.82Z" style="fill:#263238"></path><path d="M562.53,137.7c2.18,4.58,1.72,18.85-1.24,22.46-4.28,5.23-12.33,6.87-17,1.48-4.56-5.22-3.63-23.8-.23-27.18C549,129.47,559.3,130.92,562.53,137.7Z" style="fill:#eb9481"></path><path d="M549.71,148.18s.07,0,.07.09c0,1,.07,2.07.94,2.4,0,0,0,.06,0,.05C549.65,150.56,549.51,149.09,549.71,148.18Z" style="fill:#263238"></path><path d="M550.58,147.19c1.55-.09,1.63,3,.19,3.1S549.29,147.27,550.58,147.19Z" style="fill:#263238"></path><path d="M544.31,148.3s-.07,0-.07.09c0,1,0,2.07-.91,2.41,0,0,0,.06,0,0C544.4,150.68,544.52,149.21,544.31,148.3Z" style="fill:#263238"></path><path d="M543.43,147.32c-1.55-.08-1.59,3-.16,3.1S544.73,147.39,543.43,147.32Z" style="fill:#263238"></path><path d="M551.92,146.2a11,11,0,0,1-1.26.2,2.05,2.05,0,0,1-1.32,0,.64.64,0,0,1-.29-.74,1.62,1.62,0,0,1,1.36-.94,2.39,2.39,0,0,1,1.7.25A.7.7,0,0,1,551.92,146.2Z" style="fill:#263238"></path><path d="M542.19,145.79c.43-.08.81-.23,1.23-.35a2.06,2.06,0,0,0,1.18-.6.66.66,0,0,0-.06-.8,1.62,1.62,0,0,0-1.63-.26,2.42,2.42,0,0,0-1.44.95A.7.7,0,0,0,542.19,145.79Z" style="fill:#263238"></path><path d="M550.94,156.89c-.22.23-.44.55-.79.59a2.7,2.7,0,0,1-1-.22,0,0,0,0,0,0,.05,1.3,1.3,0,0,0,1.23.49,1,1,0,0,0,.74-.87C551.05,156.88,551,156.86,550.94,156.89Z" style="fill:#263238"></path><path d="M549.86,154a3.24,3.24,0,0,1-2.15,1.51,3.83,3.83,0,0,1-1.17.08.86.86,0,0,1-.23,0l-.21,0a.27.27,0,0,1-.2-.21h0a.34.34,0,0,1,0-.1h0v-.08c0-.74,0-1.87,0-1.87-.26.14-1.63.8-1.61.41a48.94,48.94,0,0,1,1-9.93.09.09,0,0,1,.18,0c0,3.08-.52,6.15-.55,9.25a5.5,5.5,0,0,1,1.53-.51c.11,0-.12,2.18-.08,2.51v0a4.54,4.54,0,0,0,3.36-1.13C549.84,153.9,549.92,154,549.86,154Z" style="fill:#263238"></path><path d="M542.87,136.39a1.52,1.52,0,0,1,1.75-.44c1,.4,1,1.53,2.58,2s5.08-2.81,8.27-1.93,4,4.68,4.18,7.56,2,7.21,4.08,7.25c.42-5,.08-10.47-1.1-13-3.16-6.8-13.5-8.4-18.55-3.46A6.69,6.69,0,0,0,542.87,136.39Z" style="fill:#263238"></path><path d="M561.25,149.46s2.57-4.91,4.76-4.05.66,7.69-1.62,8.89a2.45,2.45,0,0,1-3.44-.89Z" style="fill:#eb9481"></path><path d="M565.52,147.36s.05,0,0,.06a6.23,6.23,0,0,0-2.69,4.27,1.36,1.36,0,0,1,2-.63s0,.1,0,.1a1.51,1.51,0,0,0-1.58.73,7.63,7.63,0,0,0-.62,1.44c-.06.16-.34.11-.3-.07v0C562,151.08,563.24,147.87,565.52,147.36Z" style="fill:#263238"></path><path d="M539.62,140.31s2.23-14.81,15.46-12.93,11.23,16.73,11.23,16.73Z" style="fill:#C26C25"></path><rect x="538.49" y="141.15" width="28.97" height="2.12" transform="matrix(0.99, 0.14, -0.14, 0.99, 25.57, -76.54)" style="fill:#C26C25"></rect><polygon points="552.91 141.13 546.93 140.28 550.41 125.94 556.38 126.79 552.91 141.13" style="fill:#C26C25"></polygon><polygon points="552.91 141.13 546.93 140.28 550.41 125.94 556.38 126.79 552.91 141.13" style="opacity:0.1"></polygon><polygon points="567.25 166.59 566.55 161.28 551.88 169.73 551.45 174.94 567.25 166.59" style="fill:#ebebeb"></polygon><path d="M609.56,237.77c-.11.19-61.77,12.82-62.46,12.3-1-.73-4.24-63.46,5.44-77.44,2.39-3.44,11.62-8.29,15-6.69,8.83,4.14,15.21,15.07,19.23,21.39,3,4.68,7,12.85,10.91,21.29C604.09,222.51,610,237.09,609.56,237.77Z" style="fill:#C26C25"></path><path d="M558,170.89c9,.76,6.79,26.46-3.56,25.58S549,170.13,558,170.89Z" style="fill:#ebebeb"></path><path d="M546,235.94c0,.64,0,1.25.06,1.85l59-12.13-.71-1.71Z" style="fill:#fff"></path><path d="M546.19,239.68c0,.64.07,1.25.1,1.84l60.29-12.37c-.22-.55-.45-1.13-.7-1.72Z" style="fill:#fff"></path><rect x="478.83" y="189.32" width="5.47" height="31.9" transform="translate(1005.01 199.24) rotate(156.25)" style="fill:#c7c7c7"></rect><polygon points="490.73 236.39 498.3 233.06 498.3 233.06 489.33 212.66 489.33 212.66 481.76 215.99 481.76 215.99 490.73 236.39" style="fill:#263238"></polygon><path d="M451.84,191.39a26.12,26.12,0,1,1,35.59-9.93A26.15,26.15,0,0,1,451.84,191.39Zm1.47-2.61a23.13,23.13,0,1,0-8.8-31.51A23.16,23.16,0,0,0,453.31,188.78Z" style="fill:#37474f"></path><path d="M491.5,170.72a27,27,0,1,1-.93-9.32A27.11,27.11,0,0,1,491.5,170.72Zm-52.11-4.06a25.46,25.46,0,0,0,.87,8.78,25.35,25.35,0,0,0,46.49,5.64,25.35,25.35,0,1,0-47.36-14.42Zm49.12,3.82a23.93,23.93,0,0,1-35.58,19h0a23.87,23.87,0,1,1,35.58-19ZM453.69,188.1a22.39,22.39,0,1,0-10.54-13.46,22.38,22.38,0,0,0,10.54,13.46Z" style="fill:#37474f"></path><g style="opacity:0.2"><path d="M444,160.57a22.23,22.23,0,1,0,28.78-12.66A22.24,22.24,0,0,0,444,160.57Z" style="fill:#fff"></path><path d="M442.52,166.7a22.23,22.23,0,0,0,20,24.06Z" style="fill:#ebebeb"></path><path d="M455.48,148.39l27.42,33a22.07,22.07,0,0,0,2.48-4.66,21.73,21.73,0,0,0,1.41-5.88l-20.24-24.33A22.22,22.22,0,0,0,455.48,148.39Z" style="fill:#ebebeb"></path><path d="M444.86,158.55,471,189.94a22.8,22.8,0,0,0,4-1.64l-27.81-33.43A21.52,21.52,0,0,0,444.86,158.55Z" style="fill:#ebebeb"></path><path d="M452.81,149.84,481,183.72c.19-.2.36-.4.54-.6l-28-33.7A7.92,7.92,0,0,0,452.81,149.84Z" style="fill:#ebebeb"></path><path d="M473.76,148.34l12.51,15c-.16-.65-.35-1.29-.56-1.92l-10.18-12.23C475,148.91,474.37,148.62,473.76,148.34Z" style="fill:#ebebeb"></path></g><path d="M455,183.74a17.77,17.77,0,0,1-5.34-4.92,18.6,18.6,0,0,1-1.89-3.19,19.77,19.77,0,0,1-1.21-3.52,17.59,17.59,0,0,1-.08-7.4,19.09,19.09,0,0,1,2.79-6.72,34.76,34.76,0,0,0-1.59,6.9,21.2,21.2,0,0,0-.08,3.47,17.73,17.73,0,0,0,.47,3.4,22.54,22.54,0,0,0,2.59,6.39A30.08,30.08,0,0,0,455,183.74Z" style="fill:#fff"></path><path d="M559.3,185c-1.86,16.4-6.92,28.58-17,34.67-10.64,6.46-42.72,4.13-50.89,3.62-3.46-.22,2.8-24.77,6.45-25.44s31.56,1.74,34.15.74,8.15-5.63,15.12-18.27C555.36,165.44,560.82,171.66,559.3,185Z" style="fill:#eb9481"></path><path d="M466.51,200.63a3.94,3.94,0,0,0,1.41,4.27,5.87,5.87,0,0,0-2,3.42c-.34,2.38,3.24,4,3.24,4a7.23,7.23,0,0,0-1.57,3.94c-.1,2.32,3.29,4.43,3.29,4.43a6.32,6.32,0,0,0,.8,4.34c2.22,3.4,8.42,3.27,12.37,3.23s15.08-3.85,17.28-4.36l.11-26s-13.09-4.77-22.51-3.46C475,195,467.5,197.72,466.51,200.63Z" style="fill:#eb9481"></path><path d="M468.09,204.5c4-1.63,8.25-2,12.48-2.59.09,0,.11.14,0,.15-4.21.55-8.26,1.92-12.45,2.63A.1.1,0,0,1,468.09,204.5Z" style="fill:#263238"></path><path d="M469.2,212a11.42,11.42,0,0,1,2.91-.47c1-.1,2.07-.17,3.11-.23,2.08-.12,4.17-.19,6.25-.21.1,0,.12.14,0,.15q-3.11.18-6.21.49c-1,.1-2.07.22-3.1.34a13.86,13.86,0,0,1-2.94.21A.15.15,0,0,1,469.2,212Z" style="fill:#263238"></path><path d="M470.93,220.65a8,8,0,0,1,2.63-.28q1.43,0,2.85-.12c1.9-.09,3.8-.18,5.69-.34a.08.08,0,0,1,0,.15c-1.92.17-3.84.36-5.77.52l-2.83.21a7.5,7.5,0,0,1-2.59,0S470.89,220.67,470.93,220.65Z" style="fill:#263238"></path><path d="M503.65,197.4l-3.45,30.12s37.2.06,45.95-9.31a54.12,54.12,0,0,0,14-35.84c.17-13.3-6.57-15-13-3.08a56.4,56.4,0,0,1-15,17.93C531.6,197.83,503.65,197.4,503.65,197.4Z" style="fill:#ebebeb"></path><path d="M508.21,212.17c.18-2.15.41-4.29.64-6.44.12-1,.22-2.06.36-3.08s.23-2.25.46-3.34c0-.07.12-.07.12,0,0,1.11-.09,2.25-.12,3.36s-.11,2.07-.18,3.1c-.14,2.15-.28,4.3-.47,6.45-.38,4.3-.88,8.57-1.44,12.85a.08.08,0,0,1-.16,0C507.61,220.76,507.85,216.47,508.21,212.17Z" style="fill:#263238"></path><path d="M554.39,206.78a56.56,56.56,0,0,0,1.6-5.44c.49-1.79,1-3.57,1.47-5.36,1-3.59,2-7.2,3-10.8,0,0,.06,0,.06,0-.33,2.23-.76,4.44-1.26,6.63.06-.14.11-.29.17-.43.39-.88.8-1.74,1.21-2.6,0,0,.11,0,.09,0-.34.92-.67,1.84-1,2.74-.24.57-.5,1.13-.76,1.69-.24,1-.48,1.9-.74,2.84-.5,1.82-1.07,3.63-1.7,5.41s-1.4,3.52-1.94,5.32C554.5,206.92,554.35,206.87,554.39,206.78Z" style="fill:#263238"></path></g></svg>